<svg id="Flat" height="512" viewBox="0 0 512 512" width="512" xmlns="http://www.w3.org/2000/svg"><path d="m208 472h-64l-15.5-232.54a.09.09 0 0 0 -.01-.05l-.49-7.41h72z" fill="#eb423f"/><path d="m352 232-.35 5.29c0 .02-.01.04-.01.06l-15.64 234.65h-64l8-240z" fill="#eb423f"/><path d="m280 232-8 240h-64l-8-240z" fill="#dadcde"/><path d="m326.94 186.89a56.008 56.008 0 0 0 -99.99-44.16 32.007 32.007 0 0 0 -58.95 17.27 31.639 31.639 0 0 0 1.56 9.88 56.029 56.029 0 0 0 -41.56 54.12v8h224v-8a40.006 40.006 0 0 0 -25.06-37.11z" fill="#f2c837"/><path d="m174.628 86.627a7.976 7.976 0 0 1 -5.657-2.343l-22.627-22.627a8 8 0 1 1 11.313-11.314l22.628 22.627a8 8 0 0 1 -5.657 13.657z" fill="#d4a811"/><path d="m368 126.627a8 8 0 0 1 -5.657-13.657l22.627-22.627a8 8 0 1 1 11.314 11.314l-22.628 22.627a7.975 7.975 0 0 1 -5.656 2.343z" fill="#d4a811"/><path d="m80 240h-32a8 8 0 1 1 0-16h32a8 8 0 0 1 0 16z" fill="#d4a811"/><path d="m488 392v96h-88l-32-32-32 32h-88v-96z" fill="#e9eef2"/><path d="m280 424v32h40l32-32z" fill="#2d85cc"/><path d="m456 424v32h-40l-32-32z" fill="#eb423f"/><g fill="#f5dd67"><path d="m320 40a15.973 15.973 0 0 0 -8.15 2.22 16.23 16.23 0 0 0 .15-2.22 16 16 0 1 0 -28.56 9.92 20 20 0 1 0 28.48 19.89 16 16 0 1 0 8.08-29.81z"/><path d="m88 408a15.973 15.973 0 0 0 -8.15 2.22 16.23 16.23 0 0 0 .15-2.22 16 16 0 1 0 -28.56 9.92 20 20 0 1 0 28.48 19.89 16 16 0 1 0 8.08-29.81z"/><path d="m76.56 113.92a16 16 0 1 0 -28.56-9.92 16.23 16.23 0 0 0 .15 2.22 16.006 16.006 0 1 0 -.07 27.59 20 20 0 1 0 28.48-19.89z"/><path d="m460.56 193.92a16 16 0 1 0 -28.56-9.92 16.23 16.23 0 0 0 .15 2.22 16.006 16.006 0 1 0 -.07 27.59 20 20 0 1 0 28.48-19.89z"/></g></svg>